<svg width="20" height="20" viewBox="0 0 20 20" fill="none" xmlns="http://www.w3.org/2000/svg">
<path d="M9.74758 6.49852C7.95724 6.49852 6.49619 7.95957 6.49619 9.74991C6.49619 11.5402 7.95724 13.0013 9.74758 13.0013C11.5379 13.0013 12.999 11.5402 12.999 9.74991C12.999 7.95957 11.5379 6.49852 9.74758 6.49852ZM19.4993 9.74991C19.4993 8.4035 19.5115 7.06928 19.4359 5.72531C19.3603 4.16426 19.0041 2.77882 17.8626 1.6373C16.7187 0.493342 15.3357 0.139665 13.7746 0.0640518C12.4282 -0.0115618 11.094 0.000633958 9.75002 0.000633958C8.40361 0.000633958 7.06939 -0.0115618 5.72542 0.0640518C4.16437 0.139665 2.77893 0.495781 1.63741 1.6373C0.493449 2.78126 0.139772 4.16426 0.0641586 5.72531C-0.011455 7.07172 0.000740769 8.40594 0.000740769 9.74991C0.000740769 11.0939 -0.011455 12.4305 0.0641586 13.7745C0.139772 15.3356 0.495888 16.721 1.63741 17.8625C2.78137 19.0065 4.16437 19.3602 5.72542 19.4358C7.07183 19.5114 8.40604 19.4992 9.75002 19.4992C11.0964 19.4992 12.4306 19.5114 13.7746 19.4358C15.3357 19.3602 16.7211 19.004 17.8626 17.8625C19.0066 16.7186 19.3603 15.3356 19.4359 13.7745C19.5139 12.4305 19.4993 11.0963 19.4993 9.74991ZM9.74758 14.7526C6.97914 14.7526 4.74488 12.5183 4.74488 9.74991C4.74488 6.98148 6.97914 4.74722 9.74758 4.74722C12.516 4.74722 14.7503 6.98148 14.7503 9.74991C14.7503 12.5183 12.516 14.7526 9.74758 14.7526ZM14.9552 5.71068C14.3088 5.71068 13.7868 5.1887 13.7868 4.54233C13.7868 3.89595 14.3088 3.37398 14.9552 3.37398C15.6015 3.37398 16.1235 3.89595 16.1235 4.54233C16.1237 4.69581 16.0936 4.84783 16.035 4.98966C15.9763 5.1315 15.8903 5.26038 15.7817 5.36891C15.6732 5.47744 15.5443 5.56349 15.4025 5.62214C15.2607 5.68078 15.1086 5.71087 14.9552 5.71068Z" fill="#31352B"/>
</svg>
